<svg xmlns="http://www.w3.org/2000/svg" viewBox="0 0 576 512">
  <path fill="#2563eb" d="M547.6 103.8L490.3 13.1C485.2 5 476.1 0 466.4 0H109.6C99.9 0 90.8 5 85.7 13.1L28.3 103.8c-29.6 46.8-3.4 111.9 51.9 114.1c1.3 0 2.6 0 3.9 0c26.5 0 49.3-15.1 60.5-37.1c11.2 22 34 37.1 60.5 37.1c1.3 0 2.6 0 3.9 0c26.5 0 49.3-15.1 60.5-37.1c11.2 22 34 37.1 60.5 37.1c1.3 0 2.6 0 3.9 0c26.5 0 49.3-15.1 60.5-37.1c11.2 22 34 37.1 60.5 37.1c1.3 0 2.6 0 3.9 0c55.3-2.2 81.5-67.3 52-114.1zM480 352H96V256H48c-26.5 0-48 21.5-48 48v160c0 26.5 21.5 48 48 48h480c26.5 0 48-21.5 48-48V304c0-26.5-21.5-48-48-48h-48v96zM272 512h32c17.7 0 32-14.3 32-32V384h-96v96c0 17.7 14.3 32 32 32z"/>
</svg>
